<svg xmlns="http://www.w3.org/2000/svg" width="512" height="512" viewBox="0 0 512 512"><path d="M256 0C114.6 0 0 114.6 0 256s114.6 256 256 256 256-114.6 256-256S397.4 0 256 0zm152 408c-19.7 19.8-42.7 35.3-68.3 46-6.5 3-13 5.3-19.8 7.4V423c0-20.2-7-35-21-44.5 8.8-.8 16.7-2 24-3.5s15-3.7 23-6.5 15.3-6.2 21.7-10c6.5-4 12.6-9 18.5-15.4 6-6 11-13.2 15-21s7-17.5 9.4-28.6c2.4-11 3.5-23.3 3.5-36.6 0-26-8.3-48-25-66 7.5-20 6.7-41.8-2.6-65.3l-6.3-.8c-4.2-.5-12 1.4-23.3 5.5s-23.8 11-37.8 20.6c-20-5.6-40.5-8.3-62-8.3-21.4 0-42 2.8-61.4 8.3-8.8-6-17.2-11-25-15s-14.4-6.5-19-8-9.3-2.2-13.4-2.5-6.7-.5-7.8-.3l-2.5.5c-9.5 23.7-10.3 45.4-2.6 65.3-17 18-25.3 40-25.3 66 0 13.3 1.3 25.5 3.6 36.6S109 314 113 322s9 15 15 21 12 11.5 18.5 15.4 13.7 7.3 21.7 10 15.8 5 23 6.6 15.3 2.7 24 3.5c-13.7 9.3-20.6 24.2-20.6 44.5v39c-7.5-2-15-4.8-22.3-8-25.6-10.7-48.6-26.2-68.3-46-19.8-19.7-35.3-42.7-46-68.3C46.6 313.2 41 285 41 256s5.7-57.2 17-83.7c10.7-25.6 26.2-48.6 46-68.3 19.7-19.8 42.7-35.3 68.3-46C198.8 46.6 227 41 256 41s57.2 5.7 83.7 17c25.6 10.7 48.6 26.2 68.3 46 19.8 19.7 35.3 42.7 46 68.3 11.3 26.5 17 54.7 17 83.7s-5.7 57.2-17 83.7c-10.7 25.6-26.2 48.6-46 68.3z"/></svg>