<svg xmlns="http://www.w3.org/2000/svg" viewBox="0 0 410.155 410.155"><path d="M403.6 74.2c-9 4-18.5 7.2-28.2 9.5 10.6-10 18.7-23 23.2-37 1.3-4-3-7.6-6.7-5.4-13.6 8-28.2 14-43.4 17.8-1 .4-1.8.5-2.7.5-2.8 0-5.5-1-7.6-3-16.2-14.2-37-22-58.6-22-9.3 0-18.7 1.4-28 4.3-28.6 9-50.8 32.6-57.7 61.7-2.5 11-3.2 22-2 32.6 0 1.3-.4 2.2-.8 2.6-.6.7-1.5 1-2.4 1h-.3C125.7 131 69 100.7 29 51.7c-2-2.6-6-2.3-7.5.5-7.8 13.6-12 29-12 44.6 0 24 9.7 46.5 26.4 63-7-1.7-14-4.3-20.3-7.8-3-1.7-6.8.5-6.8 4-.6 35.6 20.3 67.3 51.5 81.6h-2c-4.8 0-9.8-.5-14.8-1.4-3.4-.7-6.3 2.6-5.3 6 10.2 31.6 37.4 55 70 60.2C81.5 320.4 50 330 17.2 330H7c-3 0-5.8 2-6.6 5-.8 3 .7 6.2 3.4 7.8 37 21.5 79 33 122 33 37.4 0 72.5-7.6 104-22.2C259 340 284.5 321 306 296.4c20-22.8 35.8-49 46.7-78.2 10.4-27.7 16-57.3 16-85.6v-1.3c0-4.6 2-8.8 5.5-11.7 13.6-11 25.4-24 35.2-38.6 2.5-4-1.5-8.7-5.8-6.8z" fill="#76A9EA"/></svg>